<svg width="27" height="27" viewBox="0 0 27 27" fill="none" xmlns="http://www.w3.org/2000/svg">
<g opacity="0.4">
<path d="M23.1209 0C23.6545 0 24.1574 0.10274 24.6294 0.308219C25.1015 0.513699 25.512 0.791096 25.8609 1.14041C26.2098 1.48973 26.4869 1.89555 26.6921 2.35788C26.8974 2.82021 27 3.31849 27 3.85274V23.1473C27 23.6815 26.8974 24.1798 26.6921 24.6421C26.4869 25.1045 26.2098 25.5103 25.8609 25.8596C25.512 26.2089 25.1015 26.4863 24.6294 26.6918C24.1574 26.8973 23.6545 27 23.1209 27H17.3637V15.4418H19.2725C19.8062 15.4418 20.2628 15.2517 20.6425 14.8716C21.0222 14.4914 21.2121 14.0342 21.2121 13.5C21.2121 12.9658 21.0222 12.5086 20.6425 12.1284C20.2628 11.7483 19.8062 11.5582 19.2725 11.5582H17.3637C17.4048 10.7774 17.569 10.2534 17.8563 9.9863C18.1437 9.71918 18.5336 9.58562 19.0262 9.58562H21.0274C21.5815 9.58562 22.0023 9.38527 22.2896 8.98459C22.577 8.5839 22.7206 8.14212 22.7206 7.65925C22.7206 7.17637 22.5821 6.73459 22.305 6.3339C22.0279 5.93322 21.6021 5.73288 21.0274 5.73288H17.7024C17.0046 5.73288 16.394 5.85103 15.8706 6.08733C15.3472 6.32363 14.9059 6.64726 14.5467 7.05822C14.1876 7.46918 13.9208 7.94178 13.7463 8.47603C13.5718 9.01027 13.4846 9.58562 13.4846 10.2021V11.5582H11.5758C11.0422 11.5582 10.5855 11.7483 10.2058 12.1284C9.82611 12.5086 9.63626 12.9658 9.63626 13.5C9.63626 14.0342 9.82611 14.4914 10.2058 14.8716C10.5855 15.2517 11.0422 15.4418 11.5758 15.4418H13.4846V27H3.84835C3.31471 27 2.81699 26.8973 2.35519 26.6918C1.89339 26.4863 1.48803 26.2089 1.13911 25.8596C0.790194 25.5103 0.513113 25.1045 0.307868 24.6421C0.102623 24.1798 0 23.6815 0 23.1473V3.85274C0 3.31849 0.102623 2.82021 0.307868 2.35788C0.513113 1.89555 0.790194 1.48973 1.13911 1.14041C1.48803 0.791096 1.89339 0.513699 2.35519 0.308219C2.81699 0.10274 3.31471 0 3.84835 0H23.1209Z" fill="#D6D6D6"/>
</g>
</svg>
