<svg width="213" height="48" viewBox="0 0 213 48" fill="none" xmlns="http://www.w3.org/2000/svg">
<g clip-path="url(#clip0)">
<path d="M78.6194 33.3864C76.8129 35.0455 74.7434 35.875 72.3766 35.875C70.8216 35.875 69.3466 35.5796 67.9746 35C66.5911 34.4091 65.3906 33.5909 64.3501 32.5341C63.3211 31.4773 62.4978 30.1932 61.9033 28.7045C61.3087 27.2159 61 25.5682 61 23.7841C61 22.1705 61.2973 20.6477 61.9033 19.2045C62.5093 17.7727 63.3325 16.5227 64.3844 15.4545C65.4363 14.3977 66.694 13.5568 68.1347 12.9318C69.5753 12.3182 71.1417 12 72.7996 12C75.0063 12 76.9272 12.4545 78.5737 13.375C80.2201 14.2955 81.455 15.5455 82.2782 17.1364L78.2078 20.1818C77.6704 19.125 76.9043 18.2955 75.8867 17.7159C74.8691 17.125 73.7829 16.8409 72.6053 16.8409C71.6906 16.8409 70.8673 17.0227 70.1241 17.3864C69.3809 17.75 68.7406 18.2614 68.2033 18.9091C67.6659 19.5568 67.2543 20.3182 66.9684 21.1818C66.6826 22.0455 66.5339 22.9773 66.5339 23.9659C66.5339 24.9773 66.694 25.9205 67.0027 26.7841C67.3114 27.6477 67.7459 28.3977 68.3062 29.0227C68.8664 29.6477 69.5181 30.1477 70.2956 30.5C71.0617 30.8523 71.9192 31.0341 72.8454 31.0341C74.9835 31.0341 76.9043 30.0455 78.6194 28.0795V27.3523H74.0116V23.4091H83.1472V35.7046H78.608V33.3864H78.6194Z" fill="white"/>
<path d="M86.7603 35.7045V12.1591H92.237V30.9204H103.717V35.6931H86.7603V35.7045Z" fill="white"/>
<path d="M115.15 35.9091C113.39 35.9091 111.789 35.5681 110.348 34.8863C108.908 34.2045 107.673 33.2954 106.644 32.1818C105.615 31.0681 104.826 29.7841 104.254 28.3522C103.682 26.9204 103.408 25.4318 103.408 23.9091C103.408 22.3636 103.705 20.875 104.288 19.4318C104.883 18 105.706 16.7272 106.758 15.6363C107.81 14.5454 109.068 13.6704 110.508 13.0113C111.949 12.3636 113.527 12.0341 115.242 12.0341C117.003 12.0341 118.603 12.375 120.044 13.0568C121.485 13.7386 122.72 14.6477 123.749 15.7727C124.778 16.8977 125.555 18.1818 126.115 19.6136C126.676 21.0454 126.95 22.5113 126.95 23.9886C126.95 25.5341 126.653 27.0227 126.07 28.4659C125.475 29.8977 124.663 31.1704 123.623 32.2613C122.571 33.3522 121.336 34.2386 119.884 34.8977C118.432 35.5568 116.854 35.9091 115.15 35.9091ZM108.976 23.9659C108.976 24.875 109.113 25.75 109.376 26.6022C109.639 27.4545 110.04 28.2159 110.565 28.875C111.091 29.5341 111.743 30.0681 112.521 30.4659C113.298 30.8636 114.19 31.0568 115.185 31.0568C116.225 31.0568 117.14 30.8522 117.917 30.4318C118.695 30.0113 119.347 29.4659 119.85 28.7954C120.364 28.125 120.742 27.3636 121.005 26.5113C121.256 25.6591 121.393 24.7954 121.393 23.9091C121.393 23 121.256 22.125 120.993 21.2727C120.73 20.4204 120.33 19.6704 119.793 19.0227C119.255 18.375 118.603 17.8522 117.837 17.4659C117.071 17.0795 116.191 16.8863 115.185 16.8863C114.133 16.8863 113.23 17.0909 112.463 17.5C111.697 17.9091 111.046 18.4431 110.531 19.1136C110.005 19.7727 109.616 20.5341 109.365 21.3863C109.102 22.2159 108.976 23.0795 108.976 23.9659Z" fill="white"/>
<path d="M130.128 35.7045V12.1591H140.236C141.368 12.1591 142.408 12.3863 143.357 12.8522C144.306 13.3181 145.118 13.9204 145.793 14.6704C146.467 15.4204 147.005 16.2727 147.393 17.2272C147.782 18.1818 147.976 19.1363 147.976 20.1136C147.976 21.1477 147.793 22.1477 147.428 23.1022C147.062 24.0568 146.547 24.9091 145.895 25.6591C145.244 26.4091 144.443 27.0113 143.506 27.4545C142.568 27.8977 141.539 28.1136 140.407 28.1136H135.605V35.7045H130.128ZM135.594 23.375H140.064C140.705 23.375 141.265 23.1022 141.734 22.5454C142.202 21.9886 142.431 21.1818 142.431 20.125C142.431 19.5681 142.362 19.1022 142.214 18.7045C142.065 18.3068 141.871 17.9772 141.631 17.7045C141.391 17.4318 141.105 17.25 140.796 17.125C140.487 17 140.179 16.9431 139.858 16.9431H135.594V23.375Z" fill="white"/>
<path d="M171.29 12.1591V35.7045H165.813V26.0568H156.369V35.7045H150.892V12.1591H156.369V21.2727H165.813V12.1591H171.29Z" fill="white"/>
<path d="M192.477 30.9318V35.7045H175.829V12.1591H192.179V16.9318H181.306V21.5113H190.647V25.9204H181.306V30.9318H192.477Z" fill="white"/>
<path d="M212.463 30.9318V35.7045H195.815V12.1591H212.166V16.9318H201.292V21.5113H210.633V25.9204H201.292V30.9318H212.463Z" fill="white"/>
<path d="M21.5992 44.0002H19.6841C17.3116 44.0002 12.881 40.0513 10.4799 37.3998C8.00255 34.663 3.84827 29.2084 3.84827 23.4508V4H21.6374V13.9432H17.7975V7.8163H7.68812V23.4508C7.68812 29.5304 14.1482 36.1971 17.7689 38.9338L17.7975 21.3486H11.5566V17.5323H21.6374L21.5992 44.0002Z" fill="white"/>
<path d="M26.4969 44.0002H24.5817L24.5436 17.5323H34.6244V21.3486H28.3834L28.412 38.9338C32.0327 36.1971 38.4928 29.5304 38.4928 23.4508V7.8163H28.3834V13.9432H24.5436V4H42.3327V23.4508C42.3327 29.2084 38.1784 34.663 35.7011 37.3998C33.3 40.0513 28.8694 44.0002 26.4969 44.0002Z" fill="white"/>
</g>
<defs>
<clipPath id="clip0">
<rect width="212.211" height="48" fill="white"/>
</clipPath>
</defs>
</svg>
