<svg width="88" height="64" viewBox="0 0 88 64" fill="none" xmlns="http://www.w3.org/2000/svg">
<g clip-path="url(#clip0)">
<path d="M10.1829 62.5256C9.13885 63.4952 7.9428 63.98 6.57495 63.98C5.67626 63.98 4.82383 63.8074 4.03087 63.4687C3.23131 63.1233 2.53747 62.6452 1.93614 62.0276C1.34142 61.4099 0.865646 60.6595 0.522031 59.7895C0.178416 58.9195 0 57.9499 0 56.9073C0 55.9643 0.171808 55.0744 0.522031 54.2309C0.872254 53.3942 1.34803 52.6637 1.95596 52.0394C2.5639 51.4218 3.29078 50.9303 4.12338 50.5651C4.95599 50.2065 5.86129 50.0205 6.81944 50.0205C8.09478 50.0205 9.20493 50.2862 10.1565 50.8241C11.108 51.362 11.8217 52.0925 12.2975 53.0223L9.94502 54.8021C9.63445 54.1845 9.19171 53.6997 8.6036 53.361C8.01549 53.0156 7.38773 52.8496 6.70711 52.8496C6.17847 52.8496 5.70269 52.9559 5.27317 53.1684C4.84366 53.3809 4.47361 53.6797 4.16303 54.0583C3.85246 54.4368 3.61457 54.8818 3.44937 55.3865C3.28417 55.8912 3.19827 56.4358 3.19827 57.0136C3.19827 57.6046 3.29078 58.1558 3.46919 58.6605C3.64761 59.1653 3.89871 59.6036 4.2225 59.9688C4.5463 60.3341 4.92295 60.6263 5.37229 60.8322C5.81503 61.038 6.31063 61.1443 6.84588 61.1443C8.08157 61.1443 9.19171 60.5665 10.1829 59.4176V58.9926H7.51989V56.6881H12.7997V63.8738H10.1763V62.5256H10.1829Z" fill="#0E4754"/>
<path d="M14.8812 63.8804V50.1267H18.0464V61.0911H24.6808V63.8804H14.8812Z" fill="#0E4754"/>
<path d="M31.2888 64C30.2712 64 29.346 63.8008 28.5134 63.4023C27.6808 63.0038 26.9672 62.4726 26.3724 61.8217C25.7777 61.1709 25.3218 60.4205 24.9914 59.5837C24.661 58.7469 24.5024 57.8769 24.5024 56.987C24.5024 56.0838 24.6742 55.2139 25.0112 54.3705C25.3548 53.5337 25.8306 52.7899 26.4385 52.1523C27.0465 51.5148 27.7733 51.0034 28.6059 50.6183C29.4385 50.2397 30.3504 50.0471 31.3416 50.0471C32.3593 50.0471 33.2844 50.2464 34.117 50.6448C34.9496 51.0433 35.6633 51.5746 36.258 52.232C36.8527 52.8895 37.3021 53.6399 37.6258 54.4767C37.9496 55.3135 38.1082 56.1702 38.1082 57.0335C38.1082 57.9367 37.9364 58.8067 37.5994 59.6501C37.2558 60.4869 36.7866 61.2307 36.1853 61.8682C35.5774 62.5058 34.8637 63.0238 34.0245 63.409C33.1853 63.7941 32.28 64 31.2888 64ZM27.7271 57.0202C27.7271 57.5515 27.8064 58.0629 27.9584 58.561C28.1103 59.0591 28.3416 59.504 28.6456 59.8892C28.9496 60.2744 29.3262 60.5865 29.7756 60.8189C30.2249 61.0514 30.7403 61.1643 31.3152 61.1643C31.9165 61.1643 32.4452 61.0447 32.8945 60.799C33.3439 60.5533 33.7205 60.2345 34.0113 59.8427C34.3086 59.4509 34.5267 59.0059 34.6787 58.5078C34.8241 58.0098 34.9034 57.505 34.9034 56.987C34.9034 56.4557 34.8241 55.9444 34.6721 55.4463C34.5201 54.9482 34.2888 54.5099 33.9782 54.1314C33.6677 53.7528 33.291 53.4473 32.8483 53.2215C32.4055 52.9958 31.8967 52.8829 31.3152 52.8829C30.7073 52.8829 30.1852 53.0024 29.7425 53.2415C29.2998 53.4806 28.9231 53.7927 28.6258 54.1845C28.3218 54.5697 28.0971 55.0146 27.9517 55.5127C27.7998 55.9975 27.7271 56.5089 27.7271 57.0202Z" fill="#0E4754"/>
<path d="M39.9519 63.8804V50.1267H45.7934C46.4476 50.1267 47.0489 50.2595 47.5973 50.5318C48.1458 50.8041 48.615 51.1561 49.0049 51.5944C49.3947 52.0327 49.7053 52.5308 49.93 53.0886C50.1546 53.6465 50.267 54.2043 50.267 54.7755C50.267 55.3798 50.1612 55.9642 49.9498 56.5221C49.7383 57.0799 49.441 57.578 49.0643 58.0163C48.6877 58.4546 48.2251 58.8066 47.6833 59.0656C47.1414 59.3246 46.5467 59.4508 45.8925 59.4508H43.1171V63.887H39.9519V63.8804ZM43.1105 56.6748H45.6942C46.0643 56.6748 46.3881 56.5154 46.659 56.19C46.9299 55.8646 47.0621 55.3931 47.0621 54.7755C47.0621 54.45 47.0225 54.1778 46.9365 53.9453C46.8506 53.7129 46.7383 53.5203 46.5995 53.3609C46.4608 53.2015 46.2956 53.0953 46.1172 53.0222C45.9387 52.9492 45.7603 52.916 45.5753 52.916H43.1105V56.6748Z" fill="#0E4754"/>
<path d="M63.7406 50.1267V63.887H60.5753V58.2421H55.1171V63.8804H51.9519V50.1267H55.1171V55.4528H60.5753V50.1267H63.7406Z" fill="#0E4754"/>
<path d="M75.9852 61.0911V63.8804H66.364V50.1267H75.8134V52.916H69.5292V55.5923H74.928V58.169H69.5292V61.0978H75.9852V61.0911Z" fill="#0E4754"/>
<path d="M87.5295 61.0911V63.8804H77.9083V50.1267H87.3577V52.916H81.0735V55.5923H86.4722V58.169H81.0735V61.0978H87.5295V61.0911Z" fill="#0E4754"/>
<path d="M41.4387 37.9139H39.6413C37.4144 37.9139 33.2646 34.1749 31.0113 31.658C28.6918 29.0613 24.7997 23.8946 24.7997 18.4356V0H41.4717V9.42368H37.8703V3.61274H28.4011V18.429C28.4011 24.1934 34.454 30.5091 37.8505 33.1057L37.877 16.4366H32.0289V12.8239H41.4783L41.4387 37.9139Z" fill="#0E4754"/>
<path d="M46.0377 37.9139H44.2403L44.2007 12.8305H53.6501V16.4433H47.802L47.8285 33.1124C51.225 30.5157 57.2779 24.2001 57.2779 18.4356V3.61274H47.802V9.42368H44.2007V0H60.8726V18.4356C60.8726 23.8946 56.9805 29.0613 54.6611 31.658C52.4144 34.1683 48.258 37.9139 46.0377 37.9139Z" fill="#0E4754"/>
</g>
<defs>
<clipPath id="clip0">
<rect width="87.5294" height="64" fill="white"/>
</clipPath>
</defs>
</svg>
