<svg width="67" height="53" viewBox="0 0 67 53" fill="none" xmlns="http://www.w3.org/2000/svg">
<g clip-path="url(#clip0)">
<path d="M4.07187 53C2.54494 53 1.28638 51.7498 1.28638 50.2125V2.77826C1.29563 1.25022 2.54494 0 4.07187 0C5.59881 0 6.85737 1.25022 6.85737 2.78752V50.2217C6.85737 51.7498 5.60806 53 4.07187 53Z" fill="white"/>
<path d="M58.6805 52.9999C56.1819 52.9999 54.2478 50.9996 54.3681 48.6844L55.8025 22.6706C55.858 21.6889 57.1536 20.911 58.6805 20.911C60.2075 20.911 61.5031 21.6889 61.5586 22.6706L62.993 48.6844C63.1133 50.9996 61.1792 52.9999 58.6805 52.9999Z" fill="white"/>
<path d="M30.881 52.9999C28.3824 52.9999 26.4483 50.9996 26.5686 48.6844L28.0029 22.6706C28.0585 21.6889 29.3541 20.911 30.881 20.911C32.4079 20.911 33.7035 21.6889 33.759 22.6706L35.1934 48.6844C35.323 50.9996 33.3796 52.9999 30.881 52.9999Z" fill="white"/>
<path d="M4.31238 52.9999C1.81376 52.9999 -0.120353 50.9996 -4.94723e-05 48.6844L1.43434 22.6706C1.48987 21.6889 2.78545 20.911 4.31238 20.911C5.83931 20.911 7.13489 21.6889 7.19042 22.6706L8.62481 48.6844C8.75437 50.9996 6.82025 52.9999 4.31238 52.9999Z" fill="white"/>
<path d="M35.8042 1.03722C35.4896 0.824218 35.0547 1.05574 35.0547 1.43544V11.252C35.0547 12.0206 34.4346 12.6411 33.6665 12.6411C32.8984 12.6411 32.2784 12.0206 32.2784 11.252V0.731609C32.2784 0.324131 31.9545 0 31.5473 0H30.5757C30.1685 0 29.8446 0.324131 29.8446 0.731609V11.2612C29.8446 12.0299 29.2245 12.6504 28.4565 12.6504C27.6884 12.6504 27.0683 12.0299 27.0683 11.2612V1.21317C27.0683 0.84274 26.6611 0.611218 26.3465 0.796435C24.5697 1.82439 23.3574 3.75066 23.3574 5.94548V20.5406C23.3574 23.8097 26.0319 26.4954 29.3078 26.4954H32.4913C35.758 26.4954 38.4417 23.819 38.4417 20.5406V5.95474C38.4232 3.90809 37.3774 2.11148 35.8042 1.03722Z" fill="white"/>
<path d="M11.3178 6.01956C9.83713 4.5656 5.81158 0.611206 5.81158 0.611206L5.39514 27.0325L7.44956 26.1712C15.5654 22.7632 17.5921 12.1873 11.3178 6.01956ZM10.8088 18.3736L10.7348 18.3273C11.1142 17.2623 11.3456 16.188 11.4196 15.1323C11.4566 14.6044 11.4474 14.0765 11.4011 13.5487C11.3641 13.03 11.2808 12.5207 11.1142 12.0113C10.7903 10.9926 10.2628 10.0017 9.6613 9.07565C9.06904 8.1403 8.41199 7.22347 7.68091 6.38073L7.74569 6.31591C9.38368 7.85321 10.9014 9.585 11.8545 11.7428C12.3728 12.8078 12.5116 14.095 12.2802 15.2527C12.0581 16.401 11.5769 17.503 10.8088 18.3736Z" fill="white"/>
<path d="M58.6804 0.138916C54.8492 0.138916 50.361 6.03809 50.361 13.3171C50.361 20.5962 53.0076 26.4954 58.6804 26.4954C64.8529 26.4954 66.9999 20.5962 66.9999 13.3171C66.9999 6.03809 62.4006 0.138916 58.6804 0.138916ZM63.5759 9.35349C63.1779 8.14958 62.706 6.95492 62.0027 5.94549C61.3271 4.92679 60.2907 4.1674 59.2079 4.15814C58.1807 4.06553 57.2275 4.93605 56.5427 6.02883L56.4502 5.99179C56.515 5.32501 56.7741 4.67675 57.2275 4.11183C57.6717 3.54692 58.4583 3.15796 59.2357 3.19501C60.0038 3.23205 60.6793 3.56544 61.2438 4.0007C61.7991 4.44522 62.2155 5.00088 62.5672 5.56579C63.252 6.7234 63.6684 7.97362 63.9831 9.2331C64.2792 10.5018 64.4643 11.7798 64.5568 13.0671L64.4643 13.0764C64.2607 11.8169 63.9645 10.5574 63.5759 9.35349Z" fill="white"/>
</g>
<defs>
<clipPath id="clip0">
<rect width="67" height="53" fill="white"/>
</clipPath>
</defs>
</svg>
