<svg width="29" height="29" viewBox="0 0 29 29" fill="none" xmlns="http://www.w3.org/2000/svg">
<g opacity="0.4">
<path d="M29 14.5C29 6.49205 22.508 0 14.5 0C6.49205 0 0 6.49205 0 14.5C0 22.508 6.49205 29 14.5 29C22.508 29 29 22.508 29 14.5ZM6.69241 19.6528C6.94286 19.6844 7.19859 19.7015 7.45695 19.7015C8.95836 19.7042 10.3398 19.1624 11.4352 18.2529C10.0327 18.2199 8.85027 17.2286 8.44295 15.8683C8.63805 15.9091 8.83973 15.9329 9.04536 15.9342C9.338 15.9355 9.62009 15.896 9.889 15.8195C8.42318 15.4952 7.31855 14.1045 7.31855 12.4476C7.31855 12.4331 7.31855 12.4186 7.31855 12.4041C7.75091 12.6651 8.24391 12.8233 8.76986 12.847C7.91173 12.2261 7.34623 11.1716 7.34623 9.98523C7.34623 9.35777 7.50441 8.7725 7.77991 8.27159C9.36041 10.3609 11.7213 11.7476 14.3827 11.9203C14.3273 11.6712 14.2996 11.4115 14.2996 11.1465C14.2996 9.27341 15.7338 7.77859 17.5028 7.80759C18.4242 7.82341 19.2573 8.24655 19.8413 8.91091C20.5715 8.77118 21.257 8.50227 21.8752 8.12659C21.6366 8.90827 21.1278 9.55945 20.4661 9.96677C21.1146 9.89427 21.7315 9.72291 22.3063 9.46323C21.8765 10.1315 21.3335 10.7155 20.7073 11.1821C20.7139 11.3271 20.7165 11.4721 20.7165 11.6171C20.7165 16.0647 17.4936 21.1937 11.6013 21.1911C9.79409 21.1924 8.10946 20.6256 6.69241 19.6528Z" fill="#D6D6D6"/>
</g>
</svg>
